<?xml version="1.0" encoding="utf-8"?>
<!-- Generator: Adobe Illustrator 21.0.0, SVG Export Plug-In . SVG Version: 6.00 Build 0)  -->
<svg version="1.1" id="Capa_1" xmlns="http://www.w3.org/2000/svg" xmlns:xlink="http://www.w3.org/1999/xlink" x="0px" y="0px"
	 viewBox="0 0 579.1 579.1" style="enable-background:new 0 0 579.1 579.1;" xml:space="preserve">
<style type="text/css">
	.st0{fill:#FFFFFF;}
</style>
<g>
	<g>
		<path class="st0" d="M434.9,38.8C390.6,13,342.1,0,289.6,0C237,0,188.6,13,144.2,38.8c-44.4,25.9-79.5,61-105.4,105.4
			C12.9,188.6,0,237,0,289.6c0,58.6,16,111.7,47.9,159.5c31.9,47.8,73.8,83.1,125.6,105.9c-1-26.9,0.6-49.1,4.9-66.7l37.3-157.6
			c-6.3-12.3-9.4-27.6-9.4-46c0-21.4,5.4-39.2,16.2-53.5c10.8-14.3,24-21.5,39.6-21.5c12.6,0,22.2,4.1,29,12.4
			c6.8,8.3,10.2,18.7,10.2,31.3c0,7.8-1.5,17.3-4.3,28.5c-2.9,11.2-6.7,24.1-11.3,38.8c-4.7,14.7-8,26.5-10,35.3
			c-3.5,15.3-0.6,28.5,8.7,39.4c9.3,10.9,21.6,16.4,37,16.4c26.9,0,49-15,66.2-44.9c17.2-29.9,25.8-66.2,25.8-109
			c0-32.9-10.6-59.7-31.9-80.3c-21.2-20.6-50.8-30.9-88.8-30.9c-42.5,0-76.9,13.6-103.1,40.9c-26.3,27.3-39.4,59.9-39.4,97.8
			c0,22.6,6.4,41.6,19.2,56.9c4.3,5,5.7,10.4,4.1,16.2c-0.5,1.5-1.5,5.3-3,11.3c-1.5,6-2.5,9.9-3,11.7c-2,8-6.8,10.6-14.3,7.5
			c-19.4-8-34.1-22-44.1-41.9c-10.1-19.9-15.1-42.9-15.1-69c0-16.8,2.7-33.7,8.1-50.5s13.8-33.1,25.3-48.8
			c11.4-15.7,25.1-29.6,41.1-41.7c16-12.1,35.4-21.7,58.3-29c22.9-7.3,47.5-10.9,73.9-10.9c35.7,0,67.7,7.9,96.1,23.8
			c28.4,15.8,50.1,36.3,65,61.5c15,25.1,22.4,52,22.4,80.7c0,37.7-6.5,71.6-19.6,101.8c-13.1,30.2-31.5,53.9-55.4,71.1
			c-23.9,17.2-51,25.8-81.4,25.8c-15.3,0-29.7-3.6-43-10.7c-13.3-7.2-22.5-15.6-27.5-25.5c-11.3,44.5-18.1,71-20.4,79.6
			c-4.8,17.9-14.6,38.5-29.4,61.8c26.9,8,54.3,12.1,82.2,12.1c52.5,0,101-12.9,145.4-38.8c44.4-25.9,79.5-61,105.4-105.4
			c25.9-44.4,38.8-92.8,38.8-145.4c0-52.5-13-101-38.8-145.4C514.4,99.9,479.3,64.7,434.9,38.8z"/>
	</g>
</g>
</svg>
